<?xml version="1.0" encoding="utf-8"?>
<!-- Generator: Adobe Illustrator 25.0.0, SVG Export Plug-In . SVG Version: 6.00 Build 0)  -->
<svg version="1.1" id="Layer_1" xmlns="http://www.w3.org/2000/svg" xmlns:xlink="http://www.w3.org/1999/xlink" x="0px" y="0px"
	 viewBox="0 0 159 159" style="enable-background:new 0 0 159 159;" xml:space="preserve">
<path d="M149.09,5C151.8,5,154,7.2,154,9.91v139.18c0,2.71-2.2,4.91-4.91,4.91H9.91C7.2,154,5,151.8,5,149.09V9.91
	C5,7.2,7.2,5,9.91,5H149.09 M149.09,0H9.91C4.44,0,0,4.44,0,9.91v139.18c0,5.47,4.44,9.91,9.91,9.91h139.18
	c5.47,0,9.91-4.44,9.91-9.91V9.91C159,4.44,154.56,0,149.09,0L149.09,0z"/>
</svg>
