<?xml version="1.0" encoding="utf-8"?>
<!-- Generator: Adobe Illustrator 25.0.0, SVG Export Plug-In . SVG Version: 6.00 Build 0)  -->
<svg version="1.1" id="Layer_1" xmlns="http://www.w3.org/2000/svg" xmlns:xlink="http://www.w3.org/1999/xlink" x="0px" y="0px"
	 viewBox="0 0 159 159" style="enable-background:new 0 0 159 159;" xml:space="preserve">
<path d="M114.59,5c2.71,0,4.91,2.2,4.91,4.91v139.18c0,2.71-2.2,4.91-4.91,4.91H44.41c-2.71,0-4.91-2.2-4.91-4.91V9.91
	C39.5,7.2,41.7,5,44.41,5H114.59 M114.59,0H44.41c-5.47,0-9.91,4.44-9.91,9.91v139.18c0,5.47,4.44,9.91,9.91,9.91h70.18
	c5.47,0,9.91-4.44,9.91-9.91V9.91C124.5,4.44,120.06,0,114.59,0L114.59,0z"/>
</svg>
