<?xml version="1.0" encoding="utf-8"?>
<!-- Generator: Adobe Illustrator 25.0.0, SVG Export Plug-In . SVG Version: 6.00 Build 0)  -->
<svg version="1.1" id="Layer_1" xmlns="http://www.w3.org/2000/svg" xmlns:xlink="http://www.w3.org/1999/xlink" x="0px" y="0px"
	 viewBox="0 0 159 159" style="enable-background:new 0 0 159 159;" xml:space="preserve">
<path d="M136.09,5C138.8,5,141,7.2,141,9.91v139.18c0,2.71-2.2,4.91-4.91,4.91H22.91c-2.71,0-4.91-2.2-4.91-4.91V9.91
	C18,7.2,20.2,5,22.91,5H136.09 M136.09,0H22.91C17.44,0,13,4.44,13,9.91v139.18c0,5.47,4.44,9.91,9.91,9.91h113.18
	c5.47,0,9.91-4.44,9.91-9.91V9.91C146,4.44,141.56,0,136.09,0L136.09,0z"/>
</svg>
