<?xml version="1.0" encoding="utf-8"?>
<!-- Generator: Adobe Illustrator 24.2.3, SVG Export Plug-In . SVG Version: 6.00 Build 0)  -->
<svg version="1.1" id="Layer_1" xmlns="http://www.w3.org/2000/svg" xmlns:xlink="http://www.w3.org/1999/xlink" x="0px" y="0px"
	 viewBox="0 0 198 142.61" style="enable-background:new 0 0 198 142.61;" xml:space="preserve">
<style type="text/css">
	.st0{fill:#4F4F4F;}
</style>
<path class="st0" d="M60.83,73.62H45.9c-12.89,0.03-23.33,10.47-23.36,23.36v7.48c0,1.41,1.15,2.56,2.56,2.56h56.52
	c0.01,0,0.02,0,0.03,0c1.41-0.01,2.55-1.16,2.54-2.58v-7.46C84.16,84.09,73.72,73.65,60.83,73.62z M79.07,101.89H27.66v-4.9
	c0.05-10.06,8.19-18.19,18.25-18.25h14.92c10.05,0.05,18.19,8.19,18.25,18.25V101.89z"/>
<path class="st0" d="M172.93,96.54h-68.54c-1.29,0.08-2.32,1.11-2.4,2.4c-0.09,1.41,0.99,2.62,2.4,2.71h68.54
	c1.29-0.08,2.32-1.11,2.4-2.4C175.41,97.84,174.34,96.63,172.93,96.54z"/>
<path class="st0" d="M65.39,65.16l0.15-0.14c0,0,0,0,0.01-0.01c6.73-6.73,6.73-17.64-0.01-24.37c-3.23-3.24-7.61-5.06-12.18-5.06
	c-4.5,0-8.82,1.76-12.04,4.91l-0.15,0.14c0,0,0,0-0.01,0.01c-6.73,6.73-6.73,17.64,0.01,24.37C47.84,71.7,58.65,71.77,65.39,65.16z
	 M44.81,44.27l0.13-0.13c4.76-4.59,12.31-4.53,17,0.13l0.03-0.01c4.73,4.74,4.73,12.42,0,17.15l-0.13,0.13
	c-4.76,4.61-12.33,4.56-17.03-0.12C40.08,56.69,40.08,49.01,44.81,44.27z"/>
<path class="st0" d="M180.96,0H17.04C7.64,0.03,0.03,7.64,0,17.04v108.53c0.03,9.4,7.64,17.01,17.04,17.04h163.92
	c9.4-0.03,17.01-7.64,17.04-17.04V17.04C197.97,7.64,190.36,0.03,180.96,0z M192.89,125.57c-0.02,6.58-5.35,11.91-11.93,11.93H17.04
	c-6.58-0.02-11.91-5.35-11.93-11.93V17.04c0.02-6.58,5.35-11.91,11.93-11.93h163.92c6.58,0.02,11.91,5.35,11.93,11.93V125.57z"/>
<path class="st0" d="M172.93,40.97h-68.54c-1.29,0.08-2.32,1.11-2.4,2.4c-0.09,1.41,0.99,2.62,2.4,2.71h68.54
	c1.29-0.08,2.32-1.11,2.4-2.4C175.41,42.27,174.34,41.06,172.93,40.97z"/>
<path class="st0" d="M172.93,68.75h-68.54c-1.29,0.08-2.32,1.11-2.4,2.4c-0.09,1.41,0.99,2.62,2.4,2.71h68.54
	c1.29-0.08,2.32-1.11,2.4-2.4C175.41,70.05,174.34,68.84,172.93,68.75z"/>
<path class="st0" d="M172.93,54.86h-68.54c-1.29,0.08-2.32,1.11-2.4,2.4c-0.09,1.41,0.99,2.62,2.4,2.71h68.54
	c1.29-0.08,2.32-1.11,2.4-2.4C175.41,56.16,174.34,54.95,172.93,54.86z"/>
<path class="st0" d="M172.93,82.65h-68.54c-1.29,0.08-2.32,1.11-2.4,2.4c-0.09,1.41,0.99,2.62,2.4,2.71h68.54
	c1.29-0.08,2.32-1.11,2.4-2.4C175.41,83.95,174.34,82.73,172.93,82.65z"/>
</svg>
