<?xml version="1.0" encoding="utf-8"?>
<!-- Generator: Adobe Illustrator 24.2.3, SVG Export Plug-In . SVG Version: 6.00 Build 0)  -->
<svg version="1.1" id="Layer_1" xmlns="http://www.w3.org/2000/svg" xmlns:xlink="http://www.w3.org/1999/xlink" x="0px" y="0px"
	 viewBox="0 0 216.5 147.5" style="enable-background:new 0 0 216.5 147.5;" xml:space="preserve">
<style type="text/css">
	.st0{fill:url(#SVGID_1_);}
	.st1{fill:url(#SVGID_2_);}
</style>
<g>
	<linearGradient id="SVGID_1_" gradientUnits="userSpaceOnUse" x1="99.8681" y1="62.931" x2="116.8681" y2="62.931">
		<stop  offset="0" style="stop-color:#06433B"/>
		<stop  offset="1" style="stop-color:#5E0C3A"/>
	</linearGradient>
	<path class="st0" d="M108.37,71.43c-4.69,0-8.5-3.81-8.5-8.5s3.81-8.5,8.5-8.5s8.5,3.81,8.5,8.5S113.05,71.43,108.37,71.43z
		 M108.37,59.43c-1.93,0-3.5,1.57-3.5,3.5c0,1.93,1.57,3.5,3.5,3.5s3.5-1.57,3.5-3.5C111.87,61,110.3,59.43,108.37,59.43z"/>
	<linearGradient id="SVGID_2_" gradientUnits="userSpaceOnUse" x1="0" y1="73.75" x2="216.5" y2="73.75">
		<stop  offset="0" style="stop-color:#06433B"/>
		<stop  offset="1" style="stop-color:#5E0C3A"/>
	</linearGradient>
	<path class="st1" d="M216,27.5V14.78C216,6.63,209.37,0,201.22,0H14.78C6.63,0,0,6.63,0,14.78V27.5l0.5,74.27v6.05v29.23
		c0,5.77,4.69,10.46,10.46,10.46h31.47h6.02h122.11h6.02h29.47c5.77,0,10.46-4.69,10.46-10.46v-29.47v-6.02L216,27.5z M6,14.78
		C6,9.94,9.94,6,14.78,6h186.44c4.84,0,8.78,3.94,8.78,8.78v19.65H6V14.78z M131,40.5v38.67c0,3.77-3.07,6.83-6.83,6.83H91.83
		C88.07,86,85,82.93,85,79.17V40.5H131z M10.96,141.5c-2.46,0-4.46-2-4.46-4.46v-29.63c19.11,0.26,34.72,15.23,36,34.08H10.96z
		 M210.5,137.04c0,2.46-2,4.46-4.46,4.46H176.5c1.23-18.19,15.81-32.77,34-34V137.04z M210.5,101.48
		c-21.5,1.25-38.77,18.52-40.02,40.02H48.52c-1.29-22.16-19.6-39.82-42.02-40.08L5.87,40.43L79,40.5v38.67
		C79,86.24,84.76,92,91.83,92h32.33c7.08,0,12.83-5.76,12.83-12.83V40.5l72.87-0.07L210.5,101.48z"/>
</g>
</svg>
