<?xml version="1.0" encoding="utf-8"?>
<!-- Generator: Adobe Illustrator 24.2.3, SVG Export Plug-In . SVG Version: 6.00 Build 0)  -->
<svg version="1.1" id="Layer_1" xmlns="http://www.w3.org/2000/svg" xmlns:xlink="http://www.w3.org/1999/xlink" x="0px" y="0px"
	 viewBox="0 0 524.57 74.59" style="enable-background:new 0 0 524.57 74.59;" xml:space="preserve">
<style type="text/css">
	.st0{fill:#FFFFFF;}
</style>
<path class="st0" d="M46.11,37.11c-1.52-1.5-3.25-2.74-5.21-3.7c-1.95-0.97-3.95-1.81-5.98-2.53c-2.04-0.72-4.03-1.37-5.98-1.95
	c-1.95-0.59-3.69-1.23-5.21-1.93c-1.52-0.7-2.75-1.54-3.68-2.5c-0.93-0.97-1.4-2.18-1.4-3.66c0-2.3,0.77-4.13,2.33-5.48
	s3.91-2.03,7.09-2.03c1.84,0,3.47,0.24,4.91,0.73c1.43,0.48,2.71,1.03,3.83,1.63c1.12,0.6,2.12,1.14,3,1.63
	c0.88,0.48,1.71,0.73,2.48,0.73c0.87,0,1.58-0.2,2.13-0.6c0.55-0.4,1.08-1,1.58-1.8l4.21-7.86c-1.3-1.2-2.78-2.28-4.43-3.23
	c-1.66-0.95-3.43-1.77-5.34-2.45s-3.91-1.2-6.04-1.55s-4.3-0.52-6.54-0.52c-4,0-7.56,0.61-10.67,1.83s-5.73,2.84-7.86,4.88
	c-2.14,2.04-3.75,4.36-4.86,6.96S2.8,18.95,2.8,21.69c0,3.41,0.47,6.27,1.4,8.59s2.16,4.26,3.68,5.81c1.52,1.55,3.25,2.8,5.18,3.75
	s3.93,1.75,5.96,2.41c2.04,0.65,4.02,1.25,5.96,1.78c1.93,0.53,3.66,1.15,5.18,1.85c1.52,0.7,2.75,1.59,3.68,2.66
	c0.93,1.07,1.41,2.45,1.41,4.16c0,2.94-0.85,5.09-2.55,6.43c-1.7,1.35-4.09,2.03-7.16,2.03c-2.27,0-4.24-0.32-5.91-0.95
	c-1.67-0.63-3.15-1.34-4.43-2.1c-1.29-0.77-2.44-1.47-3.45-2.1c-1.02-0.63-2.03-0.95-3.03-0.95c-0.77,0-1.48,0.18-2.16,0.55
	c-0.67,0.37-1.18,0.85-1.55,1.45L0,64.97c1.43,1.43,3.12,2.74,5.06,3.91c1.93,1.17,4.01,2.18,6.21,3.03
	c2.2,0.85,4.48,1.51,6.84,1.98s4.66,0.7,6.93,0.7c4.14,0,7.84-0.63,11.09-1.88s5.99-2.97,8.21-5.16c2.22-2.18,3.91-4.75,5.09-7.69
	c1.17-2.94,1.75-6.09,1.75-9.47c0-3.04-0.47-5.63-1.4-7.79C48.86,40.44,47.63,38.62,46.11,37.11z"/>
<polygon class="st0" points="112.6,0.8 54.6,0.8 54.6,14.23 75.13,14.23 75.13,73.77 92.06,73.77 92.06,14.23 112.6,14.23 "/>
<path class="st0" d="M133.93,0.8l-28.25,72.97h13.22c1.41,0,2.59-0.38,3.56-1.13s1.62-1.59,1.95-2.53l4.31-12.72h27.74l4.31,12.72
	c0.37,1.07,1.02,1.95,1.98,2.63c0.95,0.68,2.16,1.02,3.63,1.02h13.12L151.26,0.8L133.93,0.8L133.93,0.8z M132.63,45.88l6.71-19.88
	c0.5-1.27,1.04-2.77,1.6-4.51c0.57-1.73,1.12-3.62,1.66-5.66c0.57,2,1.14,3.86,1.73,5.59c0.59,1.72,1.09,3.21,1.53,4.48l6.71,19.99
	L132.63,45.88L132.63,45.88z"/>
<path class="st0" d="M226.21,37.11c-1.52-1.5-3.25-2.74-5.21-3.7c-1.95-0.97-3.95-1.81-5.98-2.53c-2.04-0.72-4.03-1.37-5.98-1.95
	c-1.95-0.59-3.69-1.23-5.21-1.93s-2.75-1.54-3.68-2.5c-0.93-0.97-1.41-2.18-1.41-3.66c0-2.3,0.78-4.13,2.33-5.48
	c1.55-1.35,3.91-2.03,7.09-2.03c1.84,0,3.47,0.24,4.91,0.73c1.43,0.48,2.71,1.03,3.83,1.63c1.12,0.6,2.12,1.14,3,1.63
	c0.88,0.48,1.71,0.73,2.48,0.73c0.87,0,1.58-0.2,2.13-0.6c0.55-0.4,1.08-1,1.58-1.8l4.2-7.86c-1.3-1.2-2.78-2.28-4.43-3.23
	c-1.66-0.95-3.43-1.77-5.34-2.45c-1.9-0.68-3.91-1.2-6.04-1.55s-4.3-0.52-6.54-0.52c-4.01,0-7.56,0.61-10.67,1.83
	c-3.11,1.22-5.73,2.84-7.86,4.88c-2.14,2.04-3.75,4.36-4.86,6.96c-1.1,2.61-1.66,5.27-1.66,8.02c0,3.41,0.47,6.27,1.41,8.59
	c0.93,2.32,2.16,4.26,3.68,5.81c1.52,1.55,3.25,2.8,5.18,3.75c1.93,0.95,3.93,1.75,5.96,2.41c2.04,0.65,4.02,1.25,5.96,1.78
	c1.93,0.53,3.66,1.15,5.18,1.85c1.52,0.7,2.75,1.59,3.68,2.66c0.93,1.07,1.4,2.45,1.4,4.16c0,2.94-0.85,5.09-2.55,6.43
	c-1.7,1.35-4.09,2.03-7.16,2.03c-2.27,0-4.24-0.32-5.91-0.95c-1.67-0.63-3.15-1.34-4.43-2.1c-1.29-0.77-2.43-1.47-3.45-2.1
	c-1.02-0.63-2.03-0.95-3.03-0.95c-0.77,0-1.48,0.18-2.16,0.55c-0.67,0.37-1.18,0.85-1.55,1.45l-5.01,7.91
	c1.43,1.43,3.12,2.74,5.06,3.91c1.93,1.17,4.01,2.18,6.21,3.03c2.2,0.85,4.48,1.51,6.84,1.98c2.36,0.47,4.66,0.7,6.93,0.7
	c4.14,0,7.84-0.63,11.09-1.88c3.25-1.25,5.99-2.97,8.21-5.16c2.22-2.18,3.91-4.75,5.09-7.69c1.17-2.94,1.75-6.09,1.75-9.47
	c0-3.04-0.47-5.63-1.4-7.79C228.95,40.44,227.73,38.62,226.21,37.11z"/>
<polygon class="st0" points="286.38,31.31 256.73,31.31 256.73,0.8 239.7,0.8 239.7,73.77 256.73,73.77 256.73,42.92 286.38,42.92 
	286.38,73.77 303.41,73.77 303.41,0.8 286.38,0.8 "/>
<path class="st0" d="M357.8,36.01c2.2-0.8,4.09-1.75,5.66-2.83c1.57-1.09,2.86-2.29,3.86-3.63c1-1.34,1.74-2.76,2.2-4.28
	c0.47-1.52,0.7-3.09,0.7-4.73c0-3-0.51-5.73-1.53-8.16c-1.02-2.43-2.65-4.51-4.88-6.21c-2.24-1.7-5.13-3.02-8.66-3.96
	c-3.54-0.93-7.83-1.4-12.87-1.4h-26.85v72.97h29.15c4.37,0,8.27-0.56,11.67-1.68c3.41-1.12,6.27-2.67,8.59-4.66
	c2.32-1.99,4.08-4.31,5.29-6.99c1.2-2.67,1.8-5.56,1.8-8.66c0-4.11-1.15-7.47-3.45-10.09C366.16,39.08,362.6,37.18,357.8,36.01z
	 M332.36,13.47h9.92c1.9,0,3.55,0.15,4.93,0.45c1.38,0.3,2.53,0.8,3.43,1.5c0.9,0.7,1.57,1.63,2,2.78c0.43,1.15,0.65,2.59,0.65,4.33
	c0,1.77-0.27,3.24-0.83,4.41c-0.55,1.17-1.35,2.09-2.41,2.75c-1.05,0.67-2.33,1.14-3.83,1.4c-1.5,0.27-3.19,0.4-5.06,0.4h-8.81
	V13.47z M354.74,54.89c-0.3,1.14-0.85,2.16-1.66,3.06s-1.91,1.64-3.33,2.2c-1.42,0.57-3.25,0.85-5.48,0.85h-11.92V42.82h11.82
	c2.14,0,3.91,0.2,5.31,0.6s2.53,0.97,3.38,1.7c0.85,0.73,1.45,1.64,1.8,2.7c0.35,1.07,0.52,2.27,0.52,3.61
	C355.19,52.61,355.04,53.75,354.74,54.89z"/>
<path class="st0" d="M442.74,10.77c-3.31-3.34-7.29-5.97-11.95-7.89C426.13,0.96,420.97,0,415.29,0c-5.68,0-10.85,0.95-15.52,2.86
	c-4.68,1.91-8.68,4.52-11.99,7.86c-3.32,3.34-5.89,7.28-7.71,11.82s-2.73,9.45-2.73,14.72s0.91,10.18,2.73,14.72
	c1.82,4.54,4.39,8.49,7.71,11.84c3.32,3.36,7.32,5.98,11.99,7.89c4.68,1.91,9.85,2.86,15.52,2.86c5.68,0,10.84-0.95,15.5-2.86
	c4.66-1.91,8.64-4.53,11.95-7.89c3.31-3.36,5.87-7.3,7.69-11.84c1.82-4.54,2.73-9.45,2.73-14.72c0-5.24-0.91-10.13-2.73-14.67
	C448.6,18.05,446.04,14.11,442.74,10.77z M434.42,47.05c-0.93,2.89-2.28,5.34-4.03,7.34c-1.75,2-3.9,3.53-6.43,4.59
	c-2.54,1.05-5.43,1.58-8.66,1.58c-3.27,0-6.18-0.52-8.74-1.58c-2.55-1.05-4.71-2.58-6.46-4.59c-1.75-2.01-3.09-4.45-4.03-7.34
	c-0.93-2.89-1.4-6.15-1.4-9.79c0-3.61,0.47-6.85,1.4-9.74c0.93-2.89,2.28-5.34,4.03-7.34s3.91-3.54,6.46-4.61
	c2.55-1.07,5.47-1.6,8.74-1.6c3.24,0,6.13,0.53,8.66,1.6c2.54,1.07,4.68,2.61,6.43,4.61s3.09,4.45,4.03,7.34
	c0.93,2.89,1.4,6.13,1.4,9.74C435.83,40.9,435.36,44.17,434.42,47.05z"/>
<path class="st0" d="M501.18,35.51L524.07,0.8h-16.22c-1.43,0-2.57,0.7-3.41,2.11l-12.72,21.83c-0.27,0.43-0.51,0.85-0.73,1.25
	c-0.22,0.4-0.41,0.82-0.57,1.25L475.89,2.65c-0.4-0.67-0.86-1.14-1.38-1.43c-0.52-0.28-1.33-0.43-2.43-0.43h-16.93l22.58,35.46
	l-23.49,37.51h15.83c1,0,1.84-0.27,2.5-0.83c0.67-0.55,1.2-1.18,1.6-1.88l13.63-23.64c0.34-0.53,0.63-1.17,0.9-1.91l14.63,25.54
	c0.4,0.73,0.94,1.37,1.63,1.91c0.68,0.53,1.58,0.8,2.68,0.8h16.93L501.18,35.51z"/>
</svg>
