<?xml version="1.0" encoding="utf-8"?>
<!-- Generator: Adobe Illustrator 24.2.3, SVG Export Plug-In . SVG Version: 6.00 Build 0)  -->
<svg version="1.1" id="Layer_1" xmlns="http://www.w3.org/2000/svg" xmlns:xlink="http://www.w3.org/1999/xlink" x="0px" y="0px"
	 viewBox="0 0 922.09 131.11" style="enable-background:new 0 0 922.09 131.11;" xml:space="preserve">
<path d="M87.52,74.87c1.64,3.79,2.46,8.35,2.46,13.69c0,5.93-1.03,11.48-3.08,16.64c-2.06,5.17-5.03,9.67-8.94,13.51
	c-3.9,3.84-8.72,6.87-14.44,9.07c-5.72,2.2-12.22,3.3-19.5,3.3c-3.99,0-8.06-0.41-12.19-1.23s-8.14-1.98-12.02-3.48
	c-3.87-1.5-7.51-3.27-10.92-5.33c-3.4-2.05-6.37-4.34-8.89-6.87l8.8-13.91c0.65-1.06,1.55-1.91,2.73-2.55
	c1.17-0.65,2.44-0.97,3.79-0.97c1.76,0,3.54,0.56,5.33,1.67c1.79,1.12,3.81,2.35,6.07,3.7c2.26,1.35,4.86,2.58,7.79,3.7
	c2.93,1.12,6.4,1.67,10.39,1.67c5.4,0,9.6-1.19,12.59-3.57s4.49-6.15,4.49-11.31c0-2.99-0.82-5.43-2.47-7.31
	c-1.64-1.88-3.8-3.43-6.47-4.67c-2.67-1.23-5.71-2.32-9.11-3.26s-6.9-1.98-10.48-3.13c-3.58-1.14-7.07-2.55-10.48-4.23
	c-3.4-1.67-6.44-3.87-9.11-6.6c-2.66-2.7-4.81-6.1-6.45-10.18s-2.46-9.11-2.46-15.1c0-4.81,0.97-9.51,2.91-14.09
	s4.78-8.66,8.54-12.24c3.75-3.58,8.36-6.44,13.82-8.58C35.66,1.07,41.92,0,48.96,0c3.93,0,7.76,0.31,11.49,0.92
	c3.73,0.62,7.26,1.53,10.61,2.73s6.47,2.64,9.38,4.31c2.91,1.67,5.5,3.57,7.79,5.68l-7.4,13.82c-0.88,1.41-1.81,2.46-2.77,3.17
	c-0.97,0.71-2.22,1.06-3.74,1.06c-1.35,0-2.8-0.42-4.36-1.28c-1.56-0.85-3.32-1.8-5.28-2.86c-1.97-1.06-4.21-2.01-6.73-2.86
	s-5.4-1.28-8.63-1.28c-5.58,0-9.73,1.19-12.46,3.57s-4.09,5.59-4.09,9.64c0,2.58,0.82,4.72,2.46,6.43c1.64,1.7,3.8,3.17,6.47,4.4
	c2.67,1.23,5.72,2.36,9.16,3.39c3.43,1.03,6.94,2.17,10.52,3.43c3.58,1.26,7.09,2.75,10.52,4.45s6.48,3.87,9.16,6.51
	C83.72,67.88,85.87,71.09,87.52,74.87z M197.91,1.41H95.97V25h36.09v104.67h29.76V25h36.09V1.41z M265.88,1.41l49.65,128.27h-23.07
	c-2.58,0-4.71-0.6-6.38-1.8s-2.83-2.74-3.48-4.62l-7.57-22.36h-48.77l-7.57,22.36c-0.59,1.64-1.73,3.13-3.43,4.45
	s-3.79,1.98-6.25,1.98h-23.24L235.42,1.41H265.88z M268.17,80.64l-11.8-35.13c-0.76-2.23-1.66-4.86-2.69-7.88s-2.04-6.29-3.04-9.82
	c-0.94,3.58-1.91,6.9-2.91,9.95s-1.94,5.69-2.82,7.92l-11.8,34.95L268.17,80.64L268.17,80.64z M397.63,65.23
	c-2.67-2.64-5.72-4.81-9.16-6.51c-3.43-1.7-6.94-3.18-10.52-4.45c-3.58-1.26-7.09-2.41-10.52-3.43c-3.43-1.03-6.49-2.16-9.16-3.39
	s-4.83-2.7-6.47-4.4s-2.47-3.84-2.47-6.43c0-4.05,1.37-7.26,4.09-9.64c2.73-2.38,6.88-3.57,12.46-3.57c3.23,0,6.1,0.43,8.63,1.28
	c2.52,0.85,4.77,1.81,6.73,2.86c1.97,1.06,3.73,2.01,5.28,2.86s3.01,1.28,4.36,1.28c1.53,0,2.77-0.35,3.74-1.06
	c0.97-0.7,1.89-1.76,2.77-3.17l7.39-13.82c-2.29-2.11-4.89-4.01-7.79-5.68c-2.91-1.67-6.03-3.11-9.38-4.31
	c-3.34-1.2-6.88-2.11-10.61-2.73C373.3,0.31,369.47,0,365.54,0c-7.04,0-13.29,1.07-18.75,3.21s-10.07,5-13.82,8.58
	c-3.76,3.58-6.6,7.66-8.54,12.24s-2.91,9.27-2.91,14.09c0,5.99,0.82,11.02,2.47,15.1c1.64,4.08,3.8,7.48,6.47,10.21
	c2.67,2.73,5.71,4.93,9.11,6.6s6.9,3.08,10.48,4.23c3.58,1.14,7.07,2.19,10.48,3.13c3.4,0.94,6.44,2.02,9.11,3.26
	c2.67,1.23,4.83,2.79,6.47,4.67s2.46,4.31,2.46,7.31c0,5.17-1.5,8.94-4.49,11.31s-7.19,3.57-12.59,3.57
	c-3.99,0-7.45-0.56-10.39-1.67c-2.93-1.11-5.53-2.35-7.79-3.7s-4.28-2.58-6.07-3.7c-1.79-1.11-3.57-1.67-5.33-1.67
	c-1.35,0-2.61,0.32-3.79,0.97c-1.17,0.65-2.08,1.5-2.73,2.55l-8.8,13.91c2.52,2.52,5.49,4.81,8.89,6.87
	c3.4,2.06,7.04,3.83,10.92,5.33c3.87,1.5,7.88,2.66,12.02,3.48s8.2,1.23,12.19,1.23c7.28,0,13.78-1.1,19.5-3.3
	s10.53-5.22,14.44-9.07c3.9-3.84,6.88-8.35,8.94-13.51c2.05-5.16,3.08-10.71,3.08-16.64c0-5.34-0.82-9.9-2.46-13.69
	C402.45,71.09,400.3,67.88,397.63,65.23z M503.4,55.02h-52.12V1.41h-29.93v128.27h29.93V75.45h52.12v54.23h29.93V1.41H503.4V55.02z
	 M647.69,73.29c4.05,4.61,6.07,10.52,6.07,17.74c0,5.46-1.06,10.54-3.17,15.23c-2.11,4.7-5.21,8.79-9.29,12.28
	c-4.08,3.49-9.11,6.22-15.1,8.19s-12.82,2.95-20.51,2.95h-51.24V1.41h47.19c8.86,0,16.4,0.82,22.63,2.46
	c6.22,1.64,11.3,3.96,15.23,6.96c3.93,2.99,6.79,6.63,8.58,10.92c1.79,4.29,2.69,9.07,2.69,14.35c0,2.88-0.41,5.65-1.23,8.32
	s-2.11,5.18-3.87,7.53s-4.02,4.48-6.78,6.38c-2.76,1.91-6.08,3.57-9.95,4.97C637.39,65.35,643.64,68.68,647.69,73.29z M584.22,55.37
	h15.49c3.29,0,6.25-0.23,8.89-0.7s4.89-1.29,6.74-2.46s3.26-2.79,4.23-4.84s1.45-4.64,1.45-7.75c0-3.05-0.38-5.59-1.14-7.62
	s-1.94-3.65-3.52-4.89c-1.58-1.23-3.6-2.11-6.03-2.64s-5.33-0.79-8.67-0.79h-17.43L584.22,55.37L584.22,55.37z M624.36,90.41
	c0-2.35-0.31-4.46-0.92-6.34c-0.62-1.88-1.67-3.46-3.17-4.75s-3.48-2.29-5.94-2.99s-5.58-1.06-9.33-1.06h-20.78v31.96h20.95
	c3.93,0,7.14-0.5,9.64-1.5c2.49-1,4.45-2.29,5.85-3.87c1.41-1.58,2.38-3.37,2.91-5.37C624.1,94.49,624.36,92.47,624.36,90.41z
	 M791.76,39.7c3.2,7.98,4.8,16.58,4.8,25.79c0,9.27-1.6,17.9-4.8,25.88s-7.7,14.92-13.51,20.82s-12.81,10.52-21,13.87
	s-17.27,5.02-27.25,5.02s-19.07-1.67-27.29-5.02s-15.25-7.97-21.08-13.87c-5.84-5.9-10.36-12.84-13.56-20.82s-4.8-16.61-4.8-25.88
	s1.6-17.9,4.8-25.88s7.72-14.91,13.56-20.78S694.5,8.35,702.71,5.01C710.93,1.67,720.02,0,730,0s19.06,1.69,27.25,5.06
	c8.19,3.38,15.19,8,21,13.87S788.56,31.72,791.76,39.7z M766.1,65.5c0-6.34-0.82-12.04-2.46-17.12s-4-9.38-7.09-12.9
	c-3.08-3.52-6.85-6.22-11.31-8.1c-4.46-1.88-9.54-2.82-15.23-2.82c-5.75,0-10.87,0.94-15.36,2.82s-8.28,4.58-11.36,8.1
	s-5.44,7.82-7.09,12.9c-1.64,5.08-2.46,10.78-2.46,17.12c0,6.4,0.82,12.14,2.46,17.21c1.64,5.08,4.01,9.38,7.09,12.9
	s6.87,6.21,11.36,8.06s9.61,2.77,15.36,2.77c5.69,0,10.77-0.92,15.23-2.77c4.46-1.85,8.23-4.53,11.31-8.06
	c3.08-3.52,5.44-7.82,7.09-12.9C765.27,77.63,766.1,71.9,766.1,65.5z M880.98,62.42l40.23-61.01h-28.52c-2.52,0-4.52,1.23-5.99,3.7
	l-22.36,38.38c-0.47,0.76-0.9,1.5-1.28,2.2s-0.72,1.44-1.01,2.2L836.52,4.67c-0.7-1.17-1.51-2.01-2.42-2.51s-2.33-0.75-4.27-0.75
	h-29.76l39.7,62.33l-41.29,65.94h27.82c1.76,0,3.23-0.48,4.4-1.45c1.17-0.97,2.11-2.07,2.82-3.3l23.95-41.55
	c0.59-0.94,1.11-2.05,1.58-3.35l25.71,44.9c0.71,1.29,1.66,2.41,2.86,3.35s2.77,1.41,4.71,1.41h29.76L880.98,62.42z"/>
</svg>
