<?xml version="1.0" encoding="utf-8"?>
<!-- Generator: Adobe Illustrator 24.2.3, SVG Export Plug-In . SVG Version: 6.00 Build 0)  -->
<svg version="1.1" id="Layer_1" xmlns="http://www.w3.org/2000/svg" xmlns:xlink="http://www.w3.org/1999/xlink" x="0px" y="0px"
	 viewBox="0 0 524.57 74.6" style="enable-background:new 0 0 524.57 74.6;" xml:space="preserve">
<style type="text/css">
	.st0{fill:url(#SVGID_1_);}
</style>
<linearGradient id="SVGID_1_" gradientUnits="userSpaceOnUse" x1="520.9029" y1="-374.693" x2="1442.9932" y2="-374.693" gradientTransform="matrix(0.5689 0 0 -0.5689 -296.3359 -175.8569)">
	<stop  offset="0" style="stop-color:#06433B"/>
	<stop  offset="1" style="stop-color:#5E0C3A"/>
</linearGradient>
<path class="st0" d="M49.79,42.61c0.93,2.16,1.4,4.75,1.4,7.79c0,3.37-0.59,6.53-1.75,9.47c-1.17,2.94-2.86,5.5-5.09,7.69
	c-2.22,2.18-4.96,3.91-8.21,5.16c-3.25,1.25-6.95,1.88-11.09,1.88c-2.27,0-4.59-0.23-6.93-0.7c-2.35-0.47-4.63-1.13-6.84-1.98
	c-2.2-0.85-4.27-1.86-6.21-3.03C3.12,67.71,1.43,66.41,0,64.97l5.01-7.91c0.37-0.6,0.88-1.09,1.55-1.45
	c0.67-0.37,1.39-0.55,2.16-0.55c1,0,2.01,0.32,3.03,0.95c1.02,0.64,2.17,1.34,3.45,2.1s2.76,1.47,4.43,2.1s3.64,0.95,5.91,0.95
	c3.07,0,5.46-0.68,7.16-2.03c1.7-1.35,2.55-3.5,2.55-6.43c0-1.7-0.47-3.09-1.41-4.16c-0.93-1.07-2.16-1.95-3.68-2.66
	c-1.52-0.7-3.25-1.32-5.18-1.85s-3.93-1.13-5.96-1.78c-2.04-0.65-4.02-1.45-5.96-2.41c-1.93-0.95-3.66-2.2-5.18-3.75
	c-1.52-1.55-2.75-3.49-3.68-5.81s-1.4-5.18-1.4-8.59c0-2.74,0.55-5.41,1.66-8.02s2.72-4.93,4.86-6.96c2.13-2.04,4.76-3.66,7.86-4.88
	S23.84,0,27.85,0c2.24,0,4.41,0.18,6.54,0.52c2.12,0.35,4.13,0.87,6.04,1.55s3.68,1.5,5.34,2.45c1.66,0.95,3.13,2.03,4.43,3.23
	l-4.21,7.86c-0.5,0.8-1.03,1.4-1.58,1.8c-0.55,0.4-1.26,0.6-2.13,0.6c-0.77,0-1.59-0.24-2.48-0.73c-0.89-0.48-1.89-1.02-3-1.63
	c-1.12-0.6-2.4-1.14-3.83-1.63c-1.43-0.48-3.07-0.73-4.91-0.73c-3.17,0-5.54,0.68-7.09,2.03s-2.33,3.18-2.33,5.48
	c0,1.47,0.47,2.69,1.4,3.66c0.93,0.97,2.16,1.8,3.68,2.5c1.52,0.7,3.25,1.34,5.21,1.93c1.95,0.59,3.95,1.23,5.98,1.95
	c2.04,0.72,4.03,1.56,5.98,2.53c1.95,0.97,3.69,2.2,5.21,3.7C47.63,38.63,48.86,40.45,49.79,42.61z M112.59,0.81h-58v13.42h20.53
	v59.55h16.93V14.23h20.53L112.59,0.81L112.59,0.81z M151.26,0.81l28.25,72.97h-13.12c-1.47,0-2.68-0.34-3.63-1.02
	c-0.95-0.68-1.61-1.56-1.98-2.63l-4.31-12.72h-27.74l-4.31,12.72c-0.34,0.93-0.98,1.78-1.95,2.53c-0.97,0.75-2.16,1.13-3.56,1.13
	h-13.22l28.25-72.97L151.26,0.81L151.26,0.81z M152.56,45.89l-6.71-19.99c-0.43-1.27-0.94-2.76-1.53-4.48s-1.16-3.58-1.73-5.59
	c-0.53,2.04-1.09,3.93-1.66,5.66c-0.57,1.74-1.1,3.24-1.6,4.51l-6.71,19.88L152.56,45.89L152.56,45.89z M226.21,37.13
	c-1.52-1.5-3.25-2.74-5.21-3.7c-1.95-0.97-3.95-1.81-5.98-2.53c-2.04-0.72-4.03-1.37-5.98-1.95c-1.95-0.59-3.69-1.23-5.21-1.93
	s-2.75-1.54-3.68-2.5c-0.93-0.97-1.41-2.18-1.41-3.66c0-2.3,0.78-4.13,2.33-5.48c1.55-1.35,3.91-2.03,7.09-2.03
	c1.84,0,3.47,0.24,4.91,0.73c1.43,0.48,2.71,1.03,3.83,1.63c1.12,0.6,2.12,1.14,3,1.63c0.88,0.48,1.71,0.73,2.48,0.73
	c0.87,0,1.58-0.2,2.13-0.6c0.55-0.4,1.08-1,1.58-1.8l4.2-7.86c-1.3-1.2-2.78-2.28-4.43-3.23c-1.66-0.95-3.43-1.77-5.34-2.45
	c-1.9-0.68-3.91-1.2-6.04-1.55s-4.3-0.52-6.54-0.52c-4.01,0-7.56,0.61-10.67,1.83s-5.73,2.84-7.86,4.88
	c-2.14,2.04-3.75,4.36-4.86,6.96s-1.66,5.27-1.66,8.02c0,3.41,0.47,6.27,1.41,8.59c0.93,2.32,2.16,4.26,3.68,5.81
	c1.52,1.55,3.25,2.8,5.18,3.75c1.93,0.95,3.93,1.75,5.96,2.41c2.04,0.65,4.02,1.25,5.96,1.78c1.93,0.53,3.66,1.15,5.18,1.85
	c1.52,0.7,2.75,1.59,3.68,2.66c0.93,1.07,1.4,2.45,1.4,4.16c0,2.94-0.85,5.09-2.55,6.43c-1.7,1.35-4.09,2.03-7.16,2.03
	c-2.27,0-4.24-0.32-5.91-0.95c-1.67-0.63-3.15-1.34-4.43-2.1c-1.29-0.77-2.43-1.47-3.45-2.1c-1.02-0.63-2.03-0.95-3.03-0.95
	c-0.77,0-1.48,0.18-2.16,0.55c-0.67,0.37-1.18,0.85-1.55,1.45l-5.01,7.91c1.43,1.43,3.12,2.74,5.06,3.91c1.93,1.17,4,2.18,6.21,3.03
	c2.2,0.85,4.48,1.51,6.84,1.98c2.36,0.47,4.66,0.7,6.93,0.7c4.14,0,7.84-0.63,11.09-1.88c3.25-1.25,5.99-2.97,8.21-5.16
	c2.22-2.18,3.91-4.75,5.09-7.69c1.17-2.94,1.75-6.09,1.75-9.47c0-3.04-0.47-5.63-1.4-7.79C228.95,40.45,227.73,38.63,226.21,37.13z
	 M286.38,31.32h-29.65V0.82H239.7v72.97h17.03V42.94h29.65v30.85h17.03V0.82h-17.03V31.32z M368.46,41.71
	c2.3,2.62,3.45,5.98,3.45,10.09c0,3.11-0.6,6-1.8,8.66c-1.2,2.67-2.96,5-5.29,6.99c-2.32,1.99-5.18,3.54-8.59,4.66
	c-3.41,1.12-7.29,1.68-11.67,1.68h-29.15V0.81h26.85c5.04,0,9.33,0.47,12.87,1.4c3.54,0.93,6.43,2.25,8.66,3.96
	c2.24,1.7,3.86,3.77,4.88,6.21c1.02,2.44,1.53,5.16,1.53,8.16c0,1.64-0.23,3.21-0.7,4.73c-0.47,1.52-1.2,2.95-2.2,4.28
	c-1,1.34-2.29,2.55-3.86,3.63c-1.57,1.09-3.46,2.03-5.66,2.83C362.6,37.19,366.16,39.09,368.46,41.71z M332.36,31.52h8.81
	c1.87,0,3.56-0.13,5.06-0.4c1.5-0.27,2.78-0.73,3.83-1.4c1.05-0.67,1.85-1.59,2.41-2.75c0.55-1.17,0.83-2.64,0.83-4.41
	c0-1.74-0.22-3.18-0.65-4.34c-0.43-1.15-1.1-2.08-2-2.78c-0.9-0.7-2.05-1.2-3.43-1.5c-1.38-0.3-3.03-0.45-4.93-0.45h-9.92V31.52z
	 M355.19,51.45c0-1.34-0.18-2.54-0.52-3.61c-0.35-1.07-0.95-1.97-1.8-2.7c-0.85-0.73-1.98-1.3-3.38-1.7c-1.4-0.4-3.17-0.6-5.31-0.6
	h-11.82v18.18h11.92c2.24,0,4.06-0.28,5.48-0.85c1.42-0.57,2.53-1.3,3.33-2.2c0.8-0.9,1.35-1.92,1.66-3.06
	C355.04,53.77,355.19,52.62,355.19,51.45z M450.42,22.6c1.82,4.54,2.73,9.43,2.73,14.67c0,5.27-0.91,10.18-2.73,14.72
	c-1.82,4.54-4.38,8.49-7.69,11.84c-3.3,3.36-7.29,5.98-11.95,7.89c-4.66,1.91-9.82,2.86-15.5,2.86c-5.68,0-10.85-0.95-15.52-2.86
	c-4.68-1.91-8.68-4.53-11.99-7.89c-3.32-3.36-5.89-7.3-7.71-11.84s-2.73-9.45-2.73-14.72s0.91-10.18,2.73-14.72
	c1.82-4.54,4.39-8.48,7.71-11.82c3.32-3.34,7.32-5.96,11.99-7.86c4.68-1.91,9.85-2.86,15.52-2.86c5.68,0,10.84,0.96,15.5,2.88
	c4.66,1.92,8.64,4.55,11.95,7.89C446.04,14.12,448.6,18.06,450.42,22.6z M435.83,37.27c0-3.61-0.47-6.85-1.4-9.74
	c-0.93-2.89-2.28-5.34-4.03-7.34c-1.75-2-3.9-3.54-6.43-4.61c-2.54-1.07-5.43-1.6-8.66-1.6c-3.27,0-6.18,0.53-8.74,1.6
	c-2.55,1.07-4.71,2.61-6.46,4.61s-3.09,4.45-4.03,7.34c-0.93,2.89-1.4,6.13-1.4,9.74c0,3.64,0.47,6.91,1.4,9.79
	c0.93,2.89,2.28,5.34,4.03,7.34s3.91,3.53,6.46,4.59c2.55,1.05,5.47,1.58,8.74,1.58c3.24,0,6.13-0.52,8.66-1.58
	c2.54-1.05,4.68-2.58,6.43-4.59c1.75-2,3.09-4.45,4.03-7.34C435.36,44.18,435.83,40.91,435.83,37.27z M501.18,35.52l22.89-34.71
	h-16.22c-1.43,0-2.57,0.7-3.41,2.11l-12.72,21.83c-0.27,0.43-0.51,0.85-0.73,1.25c-0.22,0.4-0.41,0.82-0.57,1.25L475.89,2.66
	c-0.4-0.67-0.86-1.14-1.38-1.43c-0.52-0.28-1.33-0.43-2.43-0.43h-16.93l22.58,35.46l-23.49,37.51h15.83c1,0,1.84-0.27,2.5-0.82
	c0.67-0.55,1.2-1.18,1.6-1.88l13.63-23.64c0.34-0.53,0.63-1.17,0.9-1.91l14.63,25.54c0.4,0.73,0.94,1.37,1.63,1.91
	c0.68,0.53,1.58,0.8,2.68,0.8h16.93L501.18,35.52z"/>
</svg>
